<?xml version="1.0" standalone="no"?>
<!DOCTYPE svg PUBLIC "-//W3C//DTD SVG 20010904//EN"
 "http://www.w3.org/TR/2001/REC-SVG-20010904/DTD/svg10.dtd">
<svg version="1.0" xmlns="http://www.w3.org/2000/svg"
 width="1024.000000pt" height="1024.000000pt" viewBox="0 0 1024.000000 1024.000000"
 preserveAspectRatio="xMidYMid meet">
<metadata>
Created by potrace 1.16, written by Peter Selinger 2001-2019
</metadata>
<g transform="translate(0.000000,1024.000000) scale(0.100000,-0.100000)"
fill="#000000" stroke="none">
<path d="M4817 8509 c-456 -38 -929 -176 -1337 -391 -210 -111 -530 -320 -565
-370 -13 -19 -15 -64 -15 -284 0 -735 109 -1348 342 -1929 218 -542 532 -1024
953 -1462 l127 -133 -517 0 -517 0 -112 -108 c-107 -104 -289 -278 -826 -793
-711 -680 -680 -649 -680 -680 0 -16 9 -38 20 -49 20 -20 33 -20 812 -20 l791
0 914 -302 914 -302 227 76 c125 42 536 178 914 302 l686 226 791 0 c778 0
791 0 811 20 11 11 20 33 20 49 0 30 -17 47 -890 881 -129 123 -346 331 -482
462 l-246 238 -518 0 -517 0 109 113 c619 636 1019 1389 1203 2262 71 337 101
631 108 1070 6 400 21 351 -144 468 -544 382 -1152 605 -1786 657 -145 11
-444 11 -590 -1z m718 -204 c576 -80 1123 -296 1553 -613 l64 -47 -6 -290 c-7
-384 -36 -665 -102 -990 -112 -553 -330 -1079 -637 -1540 -309 -463 -741 -906
-1192 -1220 l-94 -66 -89 60 c-267 179 -649 528 -890 814 -338 399 -611 871
-779 1347 -176 498 -257 979 -270 1595 l-6 290 79 57 c481 345 1047 554 1669
618 130 13 568 4 700 -15z m443 -4612 c34 -54 131 -204 215 -333 95 -145 150
-238 143 -242 -6 -3 -119 -46 -251 -94 -132 -48 -321 -117 -419 -154 l-180
-67 -65 31 -66 31 -206 3 c-226 4 -296 -4 -353 -43 l-36 -24 -61 22 c-68 24
-80 39 -141 162 -18 36 -36 65 -40 65 -4 0 -34 -25 -67 -56 l-60 -55 -90 33
-90 33 -3 70 -3 70 -52 -49 -53 -48 -100 37 c-55 21 -100 40 -100 41 0 2 35
57 78 121 42 65 95 146 117 181 31 49 44 62 65 62 14 0 63 12 110 26 47 14
117 34 155 44 56 15 76 26 102 55 30 35 41 76 18 72 -5 -1 -10 8 -9 19 0 13
-4 20 -12 17 -6 -2 -15 1 -20 8 -4 8 -3 10 4 5 7 -4 12 -2 12 5 0 8 7 5 20 -6
11 -10 17 -22 13 -28 -3 -6 -1 -7 6 -3 6 4 33 -11 64 -37 82 -69 280 -214 374
-273 125 -78 137 -77 294 32 130 90 276 203 394 303 l70 60 81 1 81 0 61 -97z
m1084 -70 c95 -93 242 -234 327 -315 l153 -148 -531 0 -531 0 -68 103 c-57 85
-309 472 -336 515 -6 9 77 12 403 12 l410 0 173 -167z m722 -691 c56 -54 193
-186 305 -295 l205 -197 -668 2 -667 3 -194 293 -195 292 557 0 557 0 100 -98z
m-1154 -224 l202 -302 -359 -117 c-848 -277 -978 -318 -1005 -312 -16 3 -28 9
-28 13 0 4 27 61 59 126 64 129 72 168 87 390 l7 101 -47 27 c-25 15 -46 29
-46 32 0 3 5 2 10 -1 6 -3 10 -2 10 4 0 9 56 26 63 19 1 -2 9 3 17 10 15 14
794 311 816 312 7 0 103 -136 214 -302z"/>
<path d="M4852 8023 c-31 -4 -33 -7 -30 -36 l3 -32 66 -3 66 -3 7 -177 c4 -97
11 -181 15 -185 5 -5 24 -7 42 -5 l34 3 -4 183 -3 182 58 0 c72 0 87 9 82 46
l-3 29 -150 1 c-82 1 -165 -1 -183 -3z"/>
<path d="M5310 8003 c0 -10 -7 -104 -16 -210 -9 -105 -14 -199 -11 -207 7 -17
72 -23 80 -8 8 13 39 412 33 427 -3 10 -19 15 -46 15 -31 0 -40 -4 -40 -17z"/>
<path d="M4622 7990 c-17 -7 -21 -15 -17 -32 8 -37 45 -242 45 -250 0 -4 -53
49 -117 118 -108 117 -119 125 -146 120 -16 -3 -33 -6 -38 -6 -16 0 -9 -61 29
-250 l37 -185 30 -3 c59 -5 61 3 32 149 -15 73 -25 134 -23 136 2 3 53 -50
112 -116 87 -97 114 -121 136 -121 43 0 58 10 58 40 0 33 -66 386 -75 400 -7
12 -32 12 -63 0z"/>
<path d="M5576 7992 c-7 -12 -96 -396 -96 -416 0 -16 21 -26 55 -26 27 0 29 6
67 172 12 54 25 95 29 90 3 -4 21 -52 39 -107 65 -199 67 -203 108 -215 29 -8
39 -7 48 4 14 20 98 402 91 419 -7 19 -59 29 -73 14 -6 -7 -24 -69 -39 -139
-16 -71 -30 -126 -32 -124 -2 2 -26 66 -52 142 -63 180 -59 172 -84 179 -12 4
-29 9 -39 11 -9 3 -19 1 -22 -4z"/>
<path d="M4032 7830 c-68 -26 -126 -51 -129 -54 -8 -7 -2 -23 75 -235 34 -90
65 -168 71 -174 6 -6 54 6 143 39 120 45 133 52 136 75 6 51 -18 54 -124 15
-54 -20 -98 -35 -100 -34 -6 7 -34 82 -34 92 0 6 38 26 85 45 77 30 85 35 79
55 -14 45 -21 47 -105 15 -44 -16 -82 -29 -85 -29 -5 0 -34 70 -34 84 0 7 41
27 91 46 50 19 93 40 96 48 8 18 -14 62 -29 61 -7 0 -68 -22 -136 -49z"/>
<path d="M6092 7843 c-18 -34 -152 -379 -152 -390 0 -11 84 -49 218 -99 l62
-24 12 24 c6 14 8 31 5 39 -3 8 -46 32 -96 52 -50 21 -91 41 -91 46 0 4 9 28
20 53 l19 46 82 -36 c87 -37 103 -35 111 11 2 16 -12 27 -79 60 -46 21 -83 44
-82 50 0 5 8 27 17 47 l17 37 98 -41 c104 -44 116 -43 120 7 2 27 -3 30 -127
81 -71 30 -132 54 -137 54 -5 0 -12 -8 -17 -17z"/>
<path d="M6506 7648 c-8 -13 -58 -97 -110 -187 -67 -115 -93 -168 -86 -176 6
-7 62 -43 126 -80 l117 -68 19 23 c10 13 18 30 16 38 -2 8 -40 36 -85 61 -45
25 -83 50 -83 56 0 5 38 73 85 151 47 79 85 149 85 158 0 13 -46 46 -64 46 -3
0 -12 -10 -20 -22z"/>
<path d="M3612 7634 c-97 -48 -132 -146 -77 -213 39 -46 80 -55 160 -36 80 18
117 19 133 3 40 -40 -30 -104 -121 -111 -57 -5 -67 -12 -67 -47 0 -25 5 -30
36 -36 68 -13 189 41 225 99 29 49 26 119 -8 157 -37 41 -84 48 -183 25 -66
-15 -82 -16 -95 -5 -45 38 21 110 101 110 39 0 43 2 49 30 4 16 4 34 0 40 -12
20 -99 11 -153 -16z"/>
<path d="M4665 7066 c-48 -22 -120 -90 -144 -135 -7 -12 -21 -21 -35 -21 -50
0 -125 -31 -171 -72 -54 -47 -92 -119 -101 -191 -6 -42 -12 -51 -51 -78 -109
-75 -162 -232 -119 -351 12 -32 11 -39 -1 -50 -34 -28 -75 -102 -90 -163 -15
-60 -15 -70 1 -132 9 -37 27 -83 40 -103 22 -30 24 -41 16 -80 -10 -55 3 -131
31 -178 18 -32 19 -40 8 -85 -14 -61 -7 -152 16 -198 24 -47 82 -107 128 -130
29 -16 37 -25 37 -48 0 -109 99 -218 220 -243 50 -10 60 -16 81 -50 65 -105
224 -156 352 -112 64 22 139 91 168 156 24 53 24 56 27 451 l3 397 -39 0 -39
0 -7 -61 c-3 -34 -6 -210 -6 -391 0 -307 -1 -331 -20 -367 -73 -144 -277 -159
-367 -28 -26 37 -28 48 -28 130 0 95 -11 118 -49 104 -22 -9 -46 -67 -46 -112
0 -41 -13 -44 -70 -15 -62 31 -89 79 -99 174 -6 58 -7 59 -46 73 -88 30 -153
135 -139 224 4 22 8 39 11 39 2 0 18 -8 36 -17 46 -24 144 -22 188 3 62 37 42
100 -25 76 -44 -16 -111 -15 -144 2 -60 32 -102 96 -102 158 0 24 3 29 18 25
84 -28 101 -31 116 -18 19 16 21 45 4 58 -7 6 -31 16 -52 23 -22 7 -58 31 -80
54 -95 95 -86 238 21 332 l47 42 -23 53 c-33 75 -27 170 14 228 59 86 171 122
258 83 l47 -21 26 22 c16 14 23 28 19 39 -10 25 -97 58 -154 58 -58 0 -63 11
-36 78 34 80 105 125 202 126 l61 1 12 38 c6 21 27 56 46 77 96 106 263 86
334 -40 25 -44 25 -49 28 -312 l3 -268 40 0 40 0 -3 283 -3 282 -30 54 c-56
102 -142 151 -264 151 -48 0 -80 -7 -116 -24z"/>
<path d="M5340 7073 c-61 -22 -142 -104 -163 -167 -14 -42 -17 -93 -17 -318
l0 -268 40 0 40 0 0 246 c0 154 4 262 12 292 20 81 113 152 199 152 80 0 164
-58 196 -135 17 -42 20 -45 56 -45 62 0 122 -20 162 -53 39 -32 74 -96 75
-134 0 -21 -5 -23 -52 -24 -61 0 -136 -26 -152 -51 -8 -14 -6 -22 11 -40 22
-22 23 -22 70 -5 89 32 166 16 232 -46 71 -67 88 -160 50 -262 l-21 -56 45
-42 c24 -23 52 -57 61 -75 23 -46 30 -119 16 -170 -15 -56 -83 -126 -139 -143
-54 -16 -67 -32 -53 -64 13 -29 33 -31 92 -10 23 8 44 15 46 15 12 0 1 -70
-17 -107 -38 -79 -124 -110 -222 -81 -37 11 -41 10 -58 -11 -16 -19 -17 -26
-7 -39 33 -39 156 -57 222 -33 43 17 46 14 46 -44 0 -95 -62 -180 -150 -206
l-41 -12 7 -44 c9 -63 -32 -144 -90 -178 -61 -36 -76 -33 -76 13 0 43 -28 106
-50 110 -9 1 -24 -4 -35 -12 -18 -13 -18 -18 -6 -64 20 -80 -13 -162 -84 -211
-89 -60 -191 -53 -271 21 -72 66 -74 83 -74 510 l0 368 -40 0 -41 0 3 -402 c3
-396 3 -404 26 -449 29 -59 82 -112 141 -141 66 -33 196 -33 262 0 49 24 125
94 135 124 3 10 13 18 23 18 46 0 122 33 166 72 53 46 95 124 95 175 0 28 6
36 39 52 112 58 175 208 140 334 -9 33 -7 45 13 85 18 38 23 64 24 133 0 68 5
93 21 120 73 121 59 276 -34 371 -34 35 -35 37 -22 75 7 21 13 67 13 103 0
103 -58 206 -145 257 -22 13 -29 26 -34 67 -19 140 -119 245 -251 263 -38 5
-49 12 -69 42 -33 52 -84 97 -135 120 -55 25 -164 27 -230 4z"/>
<path d="M4671 6774 c-39 -32 -49 -80 -26 -127 9 -19 26 -40 39 -47 25 -13 36
-46 36 -109 0 -32 9 -45 68 -104 55 -55 73 -67 100 -67 17 0 32 3 32 8 0 4
-34 41 -75 82 -74 74 -75 75 -75 127 0 43 3 53 20 58 33 10 60 54 60 97 0 32
-7 47 -34 74 -44 44 -99 47 -145 8z"/>
<path d="M5418 6771 c-28 -25 -33 -36 -33 -76 0 -42 4 -51 38 -80 32 -28 37
-38 37 -76 0 -42 -4 -49 -80 -124 -44 -44 -80 -82 -80 -85 0 -3 15 -7 34 -8
31 -2 42 6 110 75 l76 78 0 56 c0 50 3 57 25 67 14 6 32 27 41 46 52 108 -79
207 -168 127z"/>
<path d="M5610 6450 c0 -89 0 -90 -35 -124 -25 -25 -35 -44 -35 -66 0 -16 4
-30 8 -30 4 0 31 24 60 53 l52 53 0 102 0 102 -25 0 c-25 0 -25 -1 -25 -90z"/>
<path d="M4340 6444 c-62 -21 -90 -58 -90 -115 0 -47 56 -99 107 -99 21 0 44
5 50 11 7 7 26 -6 63 -45 l53 -56 84 0 83 0 0 30 0 30 -74 0 -75 0 -38 47
c-31 37 -38 54 -38 90 -1 34 -7 49 -30 72 -31 30 -68 44 -95 35z"/>
<path d="M5843 6435 c-40 -17 -64 -64 -61 -116 2 -36 -3 -44 -62 -104 l-64
-65 -58 0 c-58 0 -58 0 -58 -30 l0 -30 68 0 68 0 73 74 74 75 48 -6 c57 -7 90
10 115 58 29 58 -1 122 -69 148 -35 13 -35 13 -74 -4z"/>
<path d="M4927 6001 c-31 -88 -57 -164 -57 -170 0 -6 16 -11 35 -11 31 0 35 3
46 40 l12 41 65 -3 c64 -3 65 -3 76 -38 10 -31 16 -35 49 -38 20 -2 37 -1 37
1 0 4 -101 284 -115 320 -5 12 -18 17 -49 17 l-42 0 -57 -159z"/>
<path d="M5260 5990 l0 -170 35 0 35 0 0 170 0 170 -35 0 -35 0 0 -170z"/>
<path d="M4252 6099 c-40 -12 -72 -60 -72 -110 0 -106 148 -145 202 -53 l20
34 147 -2 146 -3 3 28 3 27 -150 0 -150 0 -16 31 c-9 17 -31 37 -50 45 -39 16
-38 16 -83 3z"/>
<path d="M5887 6086 c-47 -43 -45 -86 5 -159 11 -16 6 -24 -42 -67 l-55 -49
-125 -3 -125 -3 -3 -27 -3 -28 140 0 141 0 96 93 c53 50 107 109 121 131 22
33 23 42 13 67 -15 35 -67 69 -107 69 -18 0 -41 -10 -56 -24z"/>
<path d="M4511 5806 c-42 -43 -46 -45 -91 -39 -28 3 -56 1 -69 -6 -28 -15 -61
-69 -61 -99 0 -55 56 -112 110 -112 60 0 117 65 107 124 -4 26 1 38 34 73 36
39 43 42 96 45 54 3 58 5 58 28 0 24 -3 25 -70 28 l-70 3 -44 -45z"/>
<path d="M4621 5546 c-105 -105 -111 -114 -111 -152 0 -33 -5 -43 -26 -54 -70
-38 -70 -156 1 -188 67 -31 135 -1 156 66 13 47 1 83 -40 113 -23 17 -31 31
-31 54 0 25 14 45 81 110 44 44 94 96 110 116 l29 37 -30 4 c-26 4 -41 -7
-139 -106z"/>
<path d="M5480 5651 c0 -5 43 -50 95 -99 l95 -91 0 -51 c0 -46 -4 -55 -35 -84
-29 -28 -35 -40 -35 -75 0 -53 12 -77 50 -96 104 -54 202 52 141 152 -11 17
-29 34 -40 38 -19 6 -21 14 -21 74 l0 67 -94 87 c-76 70 -100 87 -125 87 -17
0 -31 -4 -31 -9z"/>
<path d="M5289 5594 c-11 -13 0 -27 79 -101 l92 -85 0 -149 0 -149 -26 -12
c-52 -24 -69 -98 -34 -155 43 -71 149 -63 185 14 22 47 7 103 -35 135 l-30 22
0 156 0 155 -77 76 c-74 72 -119 109 -134 109 -4 0 -12 -7 -20 -16z"/>
<path d="M4825 5459 l-75 -72 0 -73 c0 -65 -2 -73 -21 -79 -26 -9 -59 -62 -59
-98 0 -39 24 -81 55 -95 65 -30 133 -2 155 62 15 46 4 80 -36 116 -31 27 -34
34 -34 88 0 57 0 58 60 117 63 63 69 75 45 95 -12 10 -27 0 -90 -61z"/>
</g>
</svg>
